HIERARCHY
ROOT RootJoint
{
    OFFSET   0.000000   0.000000   0.000000
    CHANNELS 6 Xposition Yposition Zposition Xrotation Yrotation Zrotation
    JOINT lHip
    {
        OFFSET   0.100000  -0.051395   0.000000
        CHANNELS 3 Xrotation Yrotation Zrotation
        JOINT lKnee
        {
            OFFSET   0.000000  -0.410000   0.000000
            CHANNELS 3 Xrotation Yrotation Zrotation
            JOINT lAnkle
            {
                OFFSET   0.000000  -0.390000   0.000000
                CHANNELS 3 Xrotation Yrotation Zrotation
                JOINT lToeJoint
                {
                    OFFSET   0.000000  -0.050000   0.130000
                    CHANNELS 3 Xrotation Yrotation Zrotation
                    End Site
                    {
                        OFFSET   0.010000   0.002000   0.060000
                    }
                }
            }
        }
    }
    JOINT rHip
    {
        OFFSET  -0.100000  -0.051395   0.000000
        CHANNELS 3 Xrotation Yrotation Zrotation
        JOINT rKnee
        {
            OFFSET   0.000000  -0.410000   0.000000
            CHANNELS 3 Xrotation Yrotation Zrotation
            JOINT rAnkle
            {
                OFFSET   0.000000  -0.390000   0.000000
                CHANNELS 3 Xrotation Yrotation Zrotation
                JOINT rToeJoint
                {
                    OFFSET   0.000000  -0.050000   0.130000
                    CHANNELS 3 Xrotation Yrotation Zrotation
                    End Site
                    {
                        OFFSET  -0.010000   0.002000   0.060000
                    }
                }
            }
        }
    }
    JOINT pelvis_lowerback
    {
        OFFSET   0.000000   0.093605   0.000000
        CHANNELS 3 Xrotation Yrotation Zrotation
        JOINT lowerback_torso
        {
            OFFSET   0.000000   0.100000   0.000000
            CHANNELS 3 Xrotation Yrotation Zrotation
            JOINT torso_head
            {
                OFFSET   0.000000   0.282350   0.000000
                CHANNELS 3 Xrotation Yrotation Zrotation
                End Site
                {
                    OFFSET   0.000000   0.192650   0.000000
                }
            }
            JOINT lTorso_Clavicle
            {
                OFFSET   0.001000   0.157500   0.000000
                CHANNELS 3 Xrotation Yrotation Zrotation
                JOINT lShoulder
                {
                    OFFSET   0.117647   0.000000   0.000000
                    CHANNELS 3 Xrotation Yrotation Zrotation
                    JOINT lElbow
                    {
                        OFFSET   0.245000   0.000000   0.000000
                        CHANNELS 3 Xrotation Yrotation Zrotation
                        JOINT lWrist
                        {
                            OFFSET   0.240000   0.000000   0.000000
                            CHANNELS 3 Xrotation Yrotation Zrotation
                            End Site
                            {
                                OFFSET   0.116353  -0.002500   0.000000
                            }
                        }
                    }
                }
            }
            JOINT rTorso_Clavicle
            {
                OFFSET  -0.001000   0.157500   0.000000
                CHANNELS 3 Xrotation Yrotation Zrotation
                JOINT rShoulder
                {
                    OFFSET  -0.117647   0.000000   0.000000
                    CHANNELS 3 Xrotation Yrotation Zrotation
                    JOINT rElbow
                    {
                        OFFSET  -0.245000   0.000000   0.000000
                        CHANNELS 3 Xrotation Yrotation Zrotation
                        JOINT rWrist
                        {
                            OFFSET  -0.240000   0.000000   0.000000
                            CHANNELS 3 Xrotation Yrotation Zrotation
                            End Site
                            {
                                OFFSET  -0.116353  -0.002500   0.000000
                            }
                        }
                    }
                }
            }
        }
    }
}
MOTION
Frames: 7
Frame Time:   0.016667
 -0.819222   0.827706   0.057695   3.740528  64.615392  -9.167515 -11.148497  19.360854   7.196155  69.389216  -3.907307   3.863856  16.299643  -4.434910  -9.576258  -0.000005  -0.000005   0.000001 -31.833778  -6.228582  18.901388  34.140238  -2.114057  -7.002503  -2.764181  -0.135467  -5.880728  -0.000001  -0.000003   0.000001   1.746329  -3.755749   0.989263   7.428964 -14.964565   4.211405  13.612830 -46.705326  15.497099  -1.268154 -12.767340 -15.122048  10.659806 -38.965929 -42.719580  -1.366990 -34.433812   4.911929  15.898935  -2.874934  -1.723510   0.690290  -7.159879  19.725472  21.489048  21.498131  48.336049   0.285292  14.421986  -4.237963   8.623530  -4.246091   7.625340
 -0.795331   0.833614   0.058512   3.281050  63.784878  -8.786589 -15.273064  18.215110   8.402470  71.891406  -1.364608   3.743438  13.117831  -2.754776  -8.414483  -0.000003  -0.000003   0.000001 -29.869257  -5.906692  18.445824  33.883914  -1.375929  -6.831748  -4.035349   0.381394  -5.441948  -0.000002  -0.000003   0.000001   1.693048  -3.538608   0.946567   7.165257 -14.106494   3.996365  14.429574 -47.455668  16.250818  -1.292878 -12.576398 -15.302383  11.085845 -39.041007 -42.321707  -1.348883 -34.272134   4.987071  16.071817  -2.945637  -1.500007   0.682989  -7.009456  19.777359  20.312673  22.857867  47.191028   0.385931  17.843875  -4.912701   7.541641  -3.278168   6.830084
 -0.770682   0.839795   0.058910   2.641740  62.695940  -8.064690 -18.983113  17.587581   9.522271  72.747711   0.544048   3.939121  11.104181  -1.470774  -6.933460   0.000006  -0.000003   0.000001 -27.759414  -5.160694  17.843221  33.298893  -0.609243  -6.649021  -5.089006   0.885223  -5.012259  -0.000002  -0.000004   0.000001   1.644970  -3.291179   0.866406   6.908356 -13.128662   3.632280  15.134385 -48.002685  16.854289  -1.308307 -12.234909 -15.462161  11.180139 -38.575189 -42.309216  -1.343730 -34.297890   5.074562  16.331628  -3.033349  -0.993669   0.653857  -6.737160  19.640971  19.109292  24.252138  46.297152   0.493646  21.397204  -5.599606   5.995095  -2.146785   5.738745
 -0.745895   0.846024   0.059232   2.020231  61.556519  -7.330763 -22.602816  17.001662  10.599201  73.297272   2.340368   4.187986   9.277037  -0.297089  -5.369732   0.000017  -0.000004   0.000002 -25.617358  -4.357998  17.187614  32.652068   0.160754  -6.456460  -6.106291   1.380658  -4.577205  -0.000002  -0.000006   0.000001   1.598185  -3.038183   0.779622   6.659616 -12.127616   3.246213  15.829477 -48.509205  17.441379  -1.321148 -11.866023 -15.617941  11.214421 -38.011292 -42.366890  -1.340793 -34.357724   5.164382  16.608041  -3.121747  -0.435488   0.621602  -6.442615  19.470603  17.907644  25.665281  45.468330   0.644264  24.973224  -6.310598   4.385073  -0.957725   4.623043
 -0.721147   0.850328   0.058939   1.558343  60.181743  -7.017640 -25.850921  16.486593  12.091019  72.015171   3.660825   4.644907   7.263581   0.653370  -4.087240   0.000006  -0.000003   0.000001 -23.723279  -3.311043  16.766183  32.006481   0.837649  -6.297314  -7.003505   1.787690  -4.070792   0.000000  -0.000007   0.000001   1.548893  -2.771319   0.766365   6.430827 -11.066104   3.160554  16.235842 -48.728349  17.718360  -1.312624 -11.346220 -15.682129  11.053012 -36.862839 -42.723625  -1.371970 -34.793449   5.185662  16.835448  -3.175335   0.216228   0.548777  -5.911707  18.883005  16.483584  27.036607  45.198201   0.786872  28.561254  -7.121386   3.101307  -0.115932   3.513981
 -0.696289   0.854488   0.058580   1.157771  58.774275  -6.751813 -28.984217  15.940309  13.542439  70.456803   4.900182   5.148034   5.366170   1.532496  -2.853910  -0.000003  -0.000003   0.000001 -21.852832  -2.256899  16.285278  31.363070   1.524691  -6.133873  -7.898340   2.193044  -3.553857   0.000002  -0.000007   0.000001   1.497253  -2.502997   0.753920   6.194840  -9.998608   3.081241  16.612074 -48.920746  17.977596  -1.302357 -10.817289 -15.741004  10.924995 -35.680964 -43.060924  -1.407915 -35.277433   5.193970  17.084976  -3.218312   0.828490   0.478961  -5.364238  18.268164  15.010100  28.389486  45.003420   0.984578  32.152893  -7.963508   2.013945   0.663912   2.496928
 -0.670820   0.857849   0.057851   0.936993  57.192646  -6.584084 -31.600572  15.592489  14.947351  67.435840   5.728298   5.777370   4.209647   2.242561  -2.050337  -0.000001  -0.000003   0.000000 -20.135505  -1.101117  15.630308  30.740619   2.275908  -5.980938  -8.763425   2.624976  -3.007890   0.000002  -0.000006   0.000001   1.432352  -2.226707   0.744946   5.908316  -8.899669   3.016792  16.805624 -48.972491  18.121365  -1.285279 -10.238111 -15.770909  10.928399 -34.319180 -43.335561  -1.471167 -36.026767   5.130910  17.453066  -3.214600   1.222521   0.402556  -4.728708  17.498228  13.306315  29.611382  45.067845   1.197080  35.774068  -8.801893   1.925305   0.979110   1.889507
